<svg width="32" height="32" viewBox="0 0 32 32" fill="none" xmlns="http://www.w3.org/2000/svg">
<path fill-rule="evenodd" clip-rule="evenodd" d="M8.53402 2.90999C9.82054 2.80728 11.0418 2.30126 12.024 1.46399C13.1333 0.519176 14.5429 0.000274658 16 0.000274658C17.4572 0.000274658 18.8667 0.519176 19.976 1.46399C20.9582 2.30126 22.1795 2.80728 23.466 2.90999C24.9189 3.02611 26.2829 3.65592 27.3135 4.68653C28.3441 5.71713 28.9739 7.08113 29.09 8.534C29.192 9.82 29.698 11.042 30.536 12.024C31.4808 13.1333 31.9997 14.5428 31.9997 16C31.9997 17.4571 31.4808 18.8667 30.536 19.976C29.6988 20.9582 29.1927 22.1795 29.09 23.466C28.9739 24.9189 28.3441 26.2829 27.3135 27.3135C26.2829 28.3441 24.9189 28.9739 23.466 29.09C22.1795 29.1927 20.9582 29.6987 19.976 30.536C18.8667 31.4808 17.4572 31.9997 16 31.9997C14.5429 31.9997 13.1333 31.4808 12.024 30.536C11.0418 29.6987 9.82054 29.1927 8.53402 29.09C7.08116 28.9739 5.71716 28.3441 4.68655 27.3135C3.65595 26.2829 3.02614 24.9189 2.91002 23.466C2.80731 22.1795 2.30129 20.9582 1.46402 19.976C0.519207 18.8667 0.000305176 17.4571 0.000305176 16C0.000305176 14.5428 0.519207 13.1333 1.46402 12.024C2.30129 11.0418 2.80731 9.82051 2.91002 8.534C3.02614 7.08113 3.65595 5.71713 4.68655 4.68653C5.71716 3.65592 7.08116 3.02611 8.53402 2.90999ZM23.414 13.414C23.7783 13.0368 23.9799 12.5316 23.9754 12.0072C23.9708 11.4828 23.7605 10.9812 23.3897 10.6104C23.0188 10.2395 22.5172 10.0292 21.9928 10.0246C21.4684 10.0201 20.9632 10.2217 20.586 10.586L14 17.172L11.414 14.586C11.0368 14.2217 10.5316 14.0201 10.0072 14.0246C9.48283 14.0292 8.9812 14.2395 8.61039 14.6104C8.23957 14.9812 8.02923 15.4828 8.02467 16.0072C8.02012 16.5316 8.22171 17.0368 8.58602 17.414L12.586 21.414C12.9611 21.7889 13.4697 21.9996 14 21.9996C14.5304 21.9996 15.039 21.7889 15.414 21.414L23.414 13.414Z" fill="#60A5FA"/>
</svg>
