<svg width="34" height="34" viewBox="0 0 34 34" fill="none" xmlns="http://www.w3.org/2000/svg">
<path fill-rule="evenodd" clip-rule="evenodd" d="M8.59995 8.60001V6.50001C8.59995 4.82915 9.2637 3.22672 10.4452 2.04524C11.6267 0.86376 13.2291 0.200012 14.9 0.200012H19.1C20.7708 0.200012 22.3732 0.86376 23.5547 2.04524C24.7362 3.22672 25.4 4.82915 25.4 6.50001V8.60001H29.5999C30.7139 8.60001 31.7821 9.04251 32.5698 9.83016C33.3574 10.6178 33.7999 11.6861 33.7999 12.8V20.297C28.4232 22.2894 22.734 23.3063 17 23.3C11.2659 23.3064 5.57672 22.2894 0.199951 20.297V12.8C0.199951 11.6861 0.64245 10.6178 1.4301 9.83016C2.21776 9.04251 3.28604 8.60001 4.39995 8.60001H8.59995ZM12.8 6.50001C12.8 5.94306 13.0212 5.40891 13.415 5.01509C13.8089 4.62126 14.343 4.40001 14.9 4.40001H19.1C19.6569 4.40001 20.191 4.62126 20.5849 5.01509C20.9787 5.40891 21.2 5.94306 21.2 6.50001V8.60001H12.8V6.50001ZM14.9 17C14.9 16.4431 15.1212 15.9089 15.515 15.5151C15.9089 15.1213 16.443 14.9 17 14.9H17.021C17.5779 14.9 18.112 15.1213 18.5059 15.5151C18.8997 15.9089 19.121 16.4431 19.121 17C19.121 17.557 18.8997 18.0911 18.5059 18.4849C18.112 18.8788 17.5779 19.1 17.021 19.1H17C16.443 19.1 15.9089 18.8788 15.515 18.4849C15.1212 18.0911 14.9 17.557 14.9 17Z" fill="#60A5FA"/>
<path d="M0.199951 24.7532V29.6C0.199951 30.7139 0.64245 31.7822 1.4301 32.5698C2.21776 33.3575 3.28604 33.8 4.39995 33.8H29.5999C30.7139 33.8 31.7821 33.3575 32.5698 32.5698C33.3574 31.7822 33.7999 30.7139 33.7999 29.6V24.7532C28.3869 26.5776 22.7122 27.5054 17 27.5C11.1284 27.5 5.47725 26.534 0.199951 24.7532Z" fill="#60A5FA"/>
</svg>
