<svg width="40" height="40" viewBox="0 0 40 40" fill="none" xmlns="http://www.w3.org/2000/svg">
<path fill-rule="evenodd" clip-rule="evenodd" d="M10 4C10.5304 4 11.0391 4.21071 11.4142 4.58579C11.7893 4.96086 12 5.46957 12 6V8H14C14.5304 8 15.0391 8.21071 15.4142 8.58579C15.7893 8.96086 16 9.46957 16 10C16 10.5304 15.7893 11.0391 15.4142 11.4142C15.0391 11.7893 14.5304 12 14 12H12V14C12 14.5304 11.7893 15.0391 11.4142 15.4142C11.0391 15.7893 10.5304 16 10 16C9.46957 16 8.96086 15.7893 8.58579 15.4142C8.21071 15.0391 8 14.5304 8 14V12H6C5.46957 12 4.96086 11.7893 4.58579 11.4142C4.21071 11.0391 4 10.5304 4 10C4 9.46957 4.21071 8.96086 4.58579 8.58579C4.96086 8.21071 5.46957 8 6 8H8V6C8 5.46957 8.21071 4.96086 8.58579 4.58579C8.96086 4.21071 9.46957 4 10 4ZM10 24C10.5304 24 11.0391 24.2107 11.4142 24.5858C11.7893 24.9609 12 25.4696 12 26V28H14C14.5304 28 15.0391 28.2107 15.4142 28.5858C15.7893 28.9609 16 29.4696 16 30C16 30.5304 15.7893 31.0391 15.4142 31.4142C15.0391 31.7893 14.5304 32 14 32H12V34C12 34.5304 11.7893 35.0391 11.4142 35.4142C11.0391 35.7893 10.5304 36 10 36C9.46957 36 8.96086 35.7893 8.58579 35.4142C8.21071 35.0391 8 34.5304 8 34V32H6C5.46957 32 4.96086 31.7893 4.58579 31.4142C4.21071 31.0391 4 30.5304 4 30C4 29.4696 4.21071 28.9609 4.58579 28.5858C4.96086 28.2107 5.46957 28 6 28H8V26C8 25.4696 8.21071 24.9609 8.58579 24.5858C8.96086 24.2107 9.46957 24 10 24ZM24 4C24.4414 3.99986 24.8704 4.14573 25.2202 4.41487C25.57 4.68402 25.821 5.06133 25.934 5.488L28.292 14.4L35 18.268C35.304 18.4435 35.5565 18.696 35.732 19C35.9075 19.3041 35.9999 19.6489 35.9999 20C35.9999 20.3511 35.9075 20.6959 35.732 21C35.5565 21.304 35.304 21.5565 35 21.732L28.292 25.602L25.932 34.512C25.8188 34.9383 25.5679 35.3151 25.2183 35.584C24.8687 35.8529 24.44 35.9987 23.999 35.9987C23.558 35.9987 23.1293 35.8529 22.7797 35.584C22.4301 35.3151 22.1792 34.9383 22.066 34.512L19.708 25.6L13 21.732C12.696 21.5565 12.4435 21.304 12.268 21C12.0925 20.6959 12.0001 20.3511 12.0001 20C12.0001 19.6489 12.0925 19.3041 12.268 19C12.4435 18.696 12.696 18.4435 13 18.268L19.708 14.398L22.068 5.488C22.1809 5.06166 22.4316 4.6846 22.781 4.41548C23.1304 4.14637 23.559 4.0003 24 4Z" fill="#60A5FA"/>
</svg>
