<svg width="41" height="41" viewBox="0 0 41 41" fill="none" xmlns="http://www.w3.org/2000/svg">
<path d="M4.09998 21.525C4.09998 21.1212 4.17951 20.7213 4.33405 20.3483C4.48858 19.9752 4.71508 19.6362 5.00062 19.3507C5.28616 19.0651 5.62515 18.8386 5.99822 18.6841C6.3713 18.5295 6.77116 18.45 7.17498 18.45C7.57879 18.45 7.97865 18.5295 8.35173 18.6841C8.7248 18.8386 9.06379 19.0651 9.34933 19.3507C9.63487 19.6362 9.86137 19.9752 10.0159 20.3483C10.1704 20.7213 10.25 21.1212 10.25 21.525V33.825C10.25 34.6405 9.926 35.4227 9.34933 35.9994C8.77266 36.576 7.99052 36.9 7.17498 36.9C6.35943 36.9 5.5773 36.576 5.00062 35.9994C4.42395 35.4227 4.09998 34.6405 4.09998 33.825V21.525ZM12.3 21.1827V32.3142C12.2996 33.0761 12.5116 33.823 12.9121 34.4712C13.3125 35.1193 13.8857 35.6431 14.5673 35.9837L14.6698 36.0349C15.8073 36.6034 17.0614 36.8996 18.3331 36.9H29.4359C30.3841 36.9004 31.3031 36.5721 32.0365 35.9711C32.7698 35.37 33.2722 34.5334 33.458 33.6036L35.918 21.3036C36.0369 20.7088 36.0223 20.0951 35.8754 19.5067C35.7284 18.9182 35.4528 18.3697 35.0682 17.9006C34.6837 17.4316 34.1999 17.0537 33.6517 16.7942C33.1035 16.5347 32.5045 16.4001 31.898 16.4H24.6V8.20001C24.6 7.11262 24.168 6.06977 23.3991 5.30087C22.6302 4.53197 21.5874 4.10001 20.5 4.10001C19.9563 4.10001 19.4349 4.31599 19.0504 4.70044C18.666 5.08489 18.45 5.60631 18.45 6.15001V7.51736C18.45 9.29159 17.8745 11.018 16.81 12.4374L13.94 16.2627C12.8754 17.682 12.3 19.4084 12.3 21.1827Z" fill="#60A5FA"/>
</svg>
